<?xml version="1.0" encoding="utf-8"?>
<!-- Generator: Adobe Illustrator 25.0.0, SVG Export Plug-In . SVG Version: 6.00 Build 0)  -->
<svg version="1.1" id="Layer_1" xmlns="http://www.w3.org/2000/svg" xmlns:xlink="http://www.w3.org/1999/xlink" x="0px" y="0px"
	 viewBox="0 0 400 400" style="enable-background:new 0 0 400 400;" xml:space="preserve">
<style type="text/css">
	.st0{fill:#8BC53F;}
	.st1{fill:#8BC53F;stroke:#FFFFFF;stroke-width:2;stroke-linecap:round;stroke-miterlimit:10;}
	.st2{fill:#FFFFFF;}
	.st3{fill:#FFFFFF;stroke:#8BC53F;stroke-width:0.5;stroke-miterlimit:10;}
	.st4{font-family:'ArmWrestler-Bold';}
	.st5{font-size:88.4531px;}
</style>
<g>
	<rect class="st0" width="400" height="400"/>
	<g>
		<path class="st1" d="M301.3,145.15c-0.12-0.51-0.25-1.02-0.38-1.53c-8.88-34.27-40.01-59.59-77.06-59.59
			c-33.78,0-62.63,21.04-74.2,50.73"/>
		<g>
			<path class="st2" d="M275.24,138.46c2.17-0.21,2.17-3.93,0-6c-2.17-2.07-0.8-5.71-2.58-4.96c-2.59,1.09-4.09,2.07-1.22,4.75
				C274.31,134.94,273.07,138.66,275.24,138.46z"/>
			<path class="st2" d="M170.95,108.27c6.62-2.69,6.74-3.91,11.58-6.82c2.56-1.54,5.79-2.27,10.54-2.9
				c4.75-0.62,10.75-1.65,15.5-2.89c4.75-1.24,14.26-0.62,12.4,0.62c-1.86,1.24-5.38,5.17-8.48,7.65c-3.1,2.48-8.68,3.1-10.54,3.51
				c-1.86,0.41-8.48,4.34-11.16,3.31c-2.69-1.03-0.62-4.34-0.62-7.23c0-2.9-4.96-1.86-7.44,0.62c-2.48,2.48,2.07,4.13,1.45,6.41
				c-0.62,2.27-4.13,2.9-7.44,0.83c-3.31-2.07-8.06,2.89-10.34,3.93c-2.27,1.03-3.31,4.96-1.03,7.44c2.27,2.48,3.31-1.65,5.17-6.41
				c1.86-4.75,5.17-3.1,8.68,0.83c3.51,3.93,3.93,3.1,3.31,6.61c-0.62,3.52-2.69,0.62-5.79,0.21c-3.1-0.41,1.45,4.55-3.1,5.38
				c-4.55,0.83-4.75,3.31-8.89,5.79c-4.13,2.48-5.58,6.82-7.44,9.92c-0.26,0.43-1.68,19.28-1.8,19.76l19.92-9.12l21.95,5.11
				c0.95-0.89,7.11,0.76,10.38-2.63c2.65-2.75,1.08-6.69,9.53-9.21c4.27-1.27,0.89-9.47,1.51-9.91c1.77-1.24,8.18-1.86,10.45-3.1
				c2.27-1.24,6.82-4.13,8.06-0.41c1.24,3.72,4.55,6,6.62,6.41c2.07,0.41,10.75,0.21,12.82,0.62c2.07,0.41,6.82-0.41,5.38-2.69
				c-1.45-2.27-7.24-2.69-8.68-4.75c-1.45-2.07-2.27-1.45-2.89,0.83c-0.62,2.27-4.34-1.81-5.58-2.25c-1.24-0.44-2.89,4.73-3.93,2.45
				c-1.03-2.27,1.45-1.86-0.83-4.75c-2.27-2.9-3.31-4.13-6.62-2.9c-3.31,1.24-5.17,2.69-6,4.96c-0.83,2.27-5.37,3.72-6.61,3.52
				c-1.24-0.21-4.13-3.72-3.93-6c0.21-2.27,3.93-4.13,6.82-3.72c2.89,0.41-0.41-1.65-0.83-3.72c-0.41-2.07,5.17-3.93,6.62-4.55
				c1.45-0.62,0.62-6,4.55-4.34c3.93,1.65,5.17,2.07,7.65,1.86c2.48-0.21,6.41-0.21,5.37-2.69c-1.03-2.48,1.86-7.24-0.83-6.2
				c-2.69,1.03-1.65,3.1-3.51,4.55c-1.86,1.45-4.96,1.24-7.03,0.41c-2.07-0.83-5.58-1.24-3.1-2.89c2.48-1.65,4.75-3.93,7.86-5.38
				c3.1-1.45,7.03-3.93,10.54-0.62c3.51,3.31,4.55,3.51,7.44,3.93c2.9,0.41,4.76-5.17,7.03-3.72c2.27,1.45-2.07,4.34,3.31,3.93
				c5.03-0.39,5.72-0.05,10.53-0.85c-13.87-14.5-33.4-23.54-55.05-23.54c-23.03,0-43.65,10.23-57.63,26.37
				C167.94,109.41,169.28,108.95,170.95,108.27z M211.47,108.69c-3.1-0.41-0.18-1.57,1.86-2.27c1.49-0.51,4.55-1.03,5.38,0.62
				C219.53,108.69,214.57,109.1,211.47,108.69z M227.39,117.78c-0.21,2.07-4.55,1.86-4.75-0.41c-0.21-2.27-2.07,1.03-4.55,1.45
				c-2.48,0.41,1.45-4.3,3.51-6.62C224.99,108.4,227.59,115.72,227.39,117.78z"/>
			<path class="st2" d="M261.91,127.91c-2.69-1.24-3.93-2.69-5.17-0.41c-1.33,2.43-1.45,3.93,0.62,3.31s3.93,1.03,6.2,0.62
				C265.84,131.02,264.6,129.15,261.91,127.91z"/>
		</g>
	</g>
	<g>
		<path class="st2" d="M125.38,207.83c1.44,0,2.84-0.07,4.21-0.2c1.37-0.13,2.82-0.33,4.36-0.59c1.53-0.26,3.22-0.62,5.04-1.08
			c1.83-0.46,3.92-0.98,6.27-1.57l3.72-0.98l0.39-9.6c-2.94,0.72-5.45,1.29-7.54,1.71c-2.09,0.43-4.29,0.82-6.61,1.17
			c-2.32,0.36-4.29,0.54-5.92,0.54c-2.61,0-4.78-0.54-6.51-1.62c-1.73-1.08-3.13-2.68-4.21-4.8c-1.08-2.12-1.85-4.72-2.3-7.78
			c-0.46-3.07-0.69-6.59-0.69-10.58c0-8.42,1.16-14.82,3.47-19.19c2.32-4.37,6.25-6.56,11.8-6.56c1.57,0,3.39,0.16,5.49,0.49
			c2.09,0.33,4.08,0.69,5.97,1.08c1.89,0.39,4.14,0.91,6.76,1.57l-0.1-10.67l-3.33-0.59c-2.35-0.39-4.34-0.73-5.97-1.03
			c-1.63-0.29-3.08-0.54-4.36-0.73c-1.27-0.2-2.41-0.34-3.43-0.44c-1.01-0.1-2.1-0.15-3.28-0.15c-5.03,0-9.61,0.93-13.76,2.79
			c-4.14,1.86-7.69,4.47-10.62,7.83c-2.94,3.36-5.22,7.39-6.85,12.09c-1.63,4.7-2.45,9.86-2.45,15.47c0,5.09,0.7,9.71,2.11,13.86
			c1.4,4.15,3.41,7.67,6.02,10.58c2.61,2.91,5.81,5.14,9.6,6.71C116.44,207.15,120.68,207.89,125.38,207.83z"/>
		<g>
			<path class="st2" d="M176.3,208.33c-4.09,0-7.81-0.69-11.06-2.05c-3.25-1.36-6.08-3.31-8.4-5.8c-2.32-2.48-4.12-5.54-5.34-9.09
				c-1.22-3.53-1.84-7.52-1.84-11.87c0-4.6,0.65-8.86,1.94-12.65c1.29-3.8,3.13-7.1,5.48-9.81c2.35-2.72,5.23-4.85,8.54-6.35
				c3.31-1.49,7.1-2.25,11.27-2.25c4.16,0,7.93,0.67,11.2,2c3.29,1.33,6.12,3.28,8.41,5.81c2.29,2.52,4.07,5.59,5.29,9.13
				c1.22,3.53,1.84,7.55,1.84,11.96c0,4.54-0.65,8.76-1.94,12.55c-1.29,3.79-3.13,7.08-5.48,9.76c-2.36,2.69-5.25,4.82-8.59,6.34
				C184.28,207.56,180.47,208.33,176.3,208.33z M176.3,159.76c-1.08,0-2,0.21-2.74,0.62c-0.71,0.4-1.33,1.21-1.84,2.4
				c-0.53,1.25-0.91,3.08-1.14,5.43c-0.23,2.37-0.34,5.55-0.34,9.45c0,4.15,0.15,7.58,0.44,10.18c0.29,2.59,0.72,4.66,1.29,6.14
				c0.54,1.42,1.23,2.39,2.05,2.88c0.83,0.5,1.8,0.76,2.87,0.76c1.09,0,2.03-0.21,2.8-0.63c0.74-0.4,1.35-1.18,1.83-2.34
				c0.5-1.23,0.89-3.01,1.14-5.3c0.26-2.32,0.39-5.43,0.39-9.25c0-4.27-0.13-7.79-0.39-10.48c-0.26-2.65-0.69-4.74-1.29-6.23
				c-0.58-1.42-1.28-2.4-2.1-2.89C178.44,160.02,177.44,159.76,176.3,159.76z"/>
			<path class="st0" d="M176.89,148.98c4.11,0,7.78,0.65,11.02,1.96c3.23,1.31,5.97,3.2,8.22,5.68c2.25,2.48,3.98,5.47,5.19,8.96
				c1.21,3.49,1.81,7.43,1.81,11.8c0,4.5-0.64,8.63-1.91,12.39c-1.27,3.75-3.07,6.95-5.39,9.6c-2.32,2.64-5.13,4.72-8.42,6.22
				c-3.3,1.5-7,2.25-11.11,2.25c-4.05,0-7.67-0.67-10.87-2.01c-3.2-1.34-5.94-3.23-8.22-5.68c-2.29-2.45-4.03-5.42-5.24-8.91
				c-1.21-3.49-1.81-7.39-1.81-11.7c0-4.57,0.64-8.73,1.91-12.48c1.27-3.75,3.07-6.97,5.39-9.64c2.32-2.68,5.11-4.75,8.37-6.22
				C169.09,149.72,172.77,148.98,176.89,148.98 M176.89,198.14c1.18,0,2.19-0.23,3.04-0.69c0.85-0.46,1.53-1.32,2.06-2.59
				c0.52-1.27,0.91-3.09,1.18-5.43c0.26-2.35,0.39-5.45,0.39-9.3c0-4.31-0.13-7.82-0.39-10.53c-0.26-2.71-0.7-4.83-1.32-6.36
				c-0.62-1.53-1.39-2.58-2.3-3.13c-0.92-0.55-1.99-0.83-3.23-0.83c-1.17,0-2.17,0.23-2.98,0.69c-0.82,0.46-1.5,1.34-2.06,2.64
				c-0.56,1.31-0.95,3.17-1.17,5.58c-0.23,2.42-0.34,5.58-0.34,9.5c0,4.18,0.15,7.59,0.44,10.23c0.29,2.64,0.73,4.73,1.32,6.27
				c0.59,1.53,1.34,2.58,2.25,3.13C174.67,197.86,175.71,198.14,176.89,198.14 M176.89,147.98c-4.23,0-8.1,0.77-11.47,2.29
				c-3.38,1.52-6.32,3.7-8.72,6.48c-2.39,2.76-4.27,6.12-5.58,9.98c-1.3,3.84-1.96,8.15-1.96,12.81c0,4.4,0.63,8.45,1.87,12.03
				c1.25,3.61,3.08,6.73,5.45,9.27c2.37,2.54,5.25,4.53,8.57,5.92c3.31,1.38,7.1,2.08,11.25,2.08c4.24,0,8.12-0.79,11.53-2.34
				c3.41-1.55,6.36-3.73,8.76-6.47c2.39-2.73,4.27-6.08,5.58-9.93c1.3-3.84,1.96-8.11,1.96-12.71c0-4.47-0.63-8.55-1.87-12.13
				c-1.25-3.61-3.06-6.74-5.4-9.31c-2.34-2.58-5.23-4.58-8.59-5.93C184.94,148.67,181.11,147.98,176.89,147.98L176.89,147.98z
				 M176.89,197.14c-1,0-1.85-0.22-2.61-0.69c-0.72-0.43-1.34-1.32-1.84-2.64c-0.55-1.45-0.98-3.47-1.26-6.02
				c-0.29-2.58-0.43-5.99-0.43-10.12c0-3.88,0.11-7.05,0.34-9.4c0.22-2.3,0.59-4.08,1.1-5.29c0.46-1.09,1.01-1.82,1.63-2.16
				c0.66-0.37,1.5-0.56,2.5-0.56c1.06,0,1.95,0.23,2.71,0.69c0.72,0.44,1.36,1.33,1.89,2.65c0.58,1.44,1,3.48,1.25,6.09
				c0.26,2.66,0.39,6.17,0.39,10.43c0,3.8-0.13,6.89-0.38,9.19c-0.25,2.24-0.62,3.98-1.11,5.17c-0.43,1.05-0.97,1.75-1.6,2.09
				C178.75,196.95,177.89,197.14,176.89,197.14L176.89,197.14z"/>
		</g>
		<g>
			<path class="st2" d="M218.46,244.64l0.06-0.5c0-0.03,0.33-2.86,0.07-6.95l-0.04-0.64c-0.21-3.57-0.45-7.61-5.06-10.81
				c-2.37-1.65-4.63-2.01-4.66-2.01l-0.42-0.06l0-73l18.16-2.25v3.95c0.25-0.13,0.51-0.25,0.77-0.35c0.5-0.2,1.06-0.45,1.71-0.75
				c2.04-0.84,3.65-1.41,4.82-1.71c1.19-0.3,2.49-0.46,3.88-0.46c2.78,0,5.35,0.63,7.62,1.87c2.27,1.24,4.23,3,5.83,5.23
				c1.59,2.22,2.83,4.86,3.7,7.85c0.86,2.98,1.3,6.27,1.3,9.78c0,4.11-0.63,7.97-1.89,11.49c-1.25,3.52-3.03,6.61-5.27,9.18
				c-2.25,2.58-4.96,4.63-8.08,6.09c-3.12,1.47-6.58,2.21-10.3,2.21c-0.84,0-1.64-0.05-2.36-0.14c-0.55-0.07-1.13-0.17-1.74-0.28
				l-0.01,21.42l-2.02,1.81v8.65h2.03v11.25L218.46,244.64z M226.57,192.52c3.32-0.09,5.84-1.34,7.68-3.82
				c1.87-2.52,2.82-6.57,2.82-12.04c0-5.47-0.85-9.43-2.52-11.78c-1.66-2.33-4.06-3.49-7.34-3.55c-0.28,0-0.49,0.01-0.64,0.02
				V192.52z"/>
			<path class="st0" d="M226.07,148.97v4.25c0.47-0.29,0.96-0.54,1.46-0.75c0.5-0.21,1.08-0.46,1.73-0.75
				c2-0.82,3.58-1.39,4.73-1.68c1.15-0.29,2.4-0.44,3.76-0.44c2.71,0,5.17,0.61,7.38,1.81c2.21,1.21,4.1,2.91,5.66,5.09
				c1.56,2.18,2.77,4.75,3.63,7.7c0.85,2.95,1.28,6.16,1.28,9.64c0,4.07-0.62,7.84-1.86,11.32c-1.24,3.48-2.96,6.49-5.17,9.02
				c-2.21,2.54-4.85,4.53-7.92,5.97c-3.07,1.45-6.43,2.17-10.08,2.17c-0.83,0-1.59-0.04-2.3-0.13c-0.71-0.09-1.47-0.22-2.3-0.4
				l-0.01,21.81l-2.02,1.81v9.37l2.03,0v10.19l-7.05-0.77c0,0,0.34-2.85,0.07-7.04c-0.24-3.78-0.22-8.3-5.32-11.83
				c-2.51-1.74-4.87-2.09-4.87-2.09V151.1L226.07,148.97 M226.07,193.02h0.35c3.54-0.06,6.28-1.4,8.23-4.03
				c1.95-2.62,2.92-6.74,2.92-12.34c0-5.6-0.87-9.63-2.61-12.07c-1.74-2.45-4.32-3.7-7.74-3.76c-0.53,0-0.91,0.03-1.15,0.09V193.02
				 M227.07,147.84l-1.12,0.14l-17.16,2.12l-0.88,0.11v0.88v72.13v0.86l0.85,0.13c0.02,0,2.18,0.35,4.44,1.93
				c4.41,3.06,4.63,6.81,4.85,10.43l0.04,0.65c0.26,4.03-0.07,6.83-0.07,6.86l-0.12,1l1,0.11l7.05,0.77l1.11,0.12v-1.12v-10.19v-1
				l-1,0l-1.03,0v-7.93l1.69-1.51l0.33-0.3l0-0.45l0.01-20.6c0.41,0.07,0.8,0.13,1.17,0.18c0.75,0.09,1.56,0.14,2.43,0.14
				c3.79,0,7.32-0.76,10.51-2.26c3.18-1.5,5.95-3.59,8.24-6.22c2.28-2.62,4.09-5.76,5.36-9.34c1.27-3.57,1.92-7.49,1.92-11.66
				c0-3.56-0.44-6.89-1.32-9.92c-0.88-3.05-2.15-5.74-3.77-8c-1.65-2.3-3.66-4.11-6-5.38c-2.35-1.28-5-1.94-7.86-1.94
				c-1.43,0-2.78,0.16-4.01,0.47c-1.2,0.31-2.8,0.87-4.86,1.72c-0.66,0.3-1.23,0.55-1.73,0.75c-0.03,0.01-0.05,0.02-0.08,0.03v-2.6
				V147.84L227.07,147.84z M227.07,161.83c0.05,0,0.1,0,0.15,0c3.1,0.05,5.37,1.15,6.93,3.34c1.61,2.26,2.42,6.13,2.42,11.49
				c0,5.36-0.92,9.31-2.72,11.74c-1.65,2.22-3.87,3.4-6.78,3.59V161.83L227.07,161.83z"/>
		</g>
		<path class="st2" d="M302.84,150.03h-11.41l-9.11,28.39c-1-2.83-1.87-5.31-2.61-7.43c-0.74-2.12-1.53-4.42-2.39-6.9
			c-0.86-2.48-1.65-4.76-2.39-6.86c-0.74-2.09-1.61-4.56-2.61-7.39h-17.34l18.57,47.73c0,0,9.21,71.05-14.6,89.78
			c-13.09,10.29-22.34,11.64-66.52-1.44c-18.37-5.44-53.59-10.77-76.37,6.21c0,0-17.52,11.68-8.28,23.13
			c2.8,3.46,10.12,7.02,17.81,0c4.01-3.67,8.46-18.44,22.5-22.08c13.91-3.61,25.69-0.38,46.52,7.17c19.32,7,57.34,16.7,76.74-6.16
			c7.56-8.91,12.38-26.86,14.16-41.51c1.34-11.06,0.97-54.55,0.97-54.55L302.84,150.03z"/>
	</g>
	<g>
		<text transform="matrix(1 0 0 1 125.822 275.3818)" class="st3 st4 st5">Cat</text>
	</g>
</g>
</svg>
