<?xml version="1.0" encoding="utf-8"?>
<!-- Generator: Adobe Illustrator 25.0.0, SVG Export Plug-In . SVG Version: 6.00 Build 0)  -->
<svg version="1.1" id="Layer_1" xmlns="http://www.w3.org/2000/svg" xmlns:xlink="http://www.w3.org/1999/xlink" x="0px" y="0px"
	 viewBox="0 0 400 400" style="enable-background:new 0 0 400 400;" xml:space="preserve">
<style type="text/css">
	.st0{fill:#EFEFEF;}
	.st1{fill:#78B0A5;}
	.st2{fill:#FFF7E3;}
	.st3{fill:#B9DCBB;}
	.st4{fill:#89BAA4;}
	.st5{fill:#43867C;}
	.st6{fill:#397C39;}
	.st7{opacity:0.67;fill:#78B0A5;}
	.st8{fill:#D96069;}
	.st9{fill:#FFFFFF;}
</style>
<g id="Group_56" transform="translate(-923.832 -163.4)">
	<path id="Path_1172" class="st0" d="M543.82,13.57h841.34v811.98H543.82V13.57z"/>
	<g transform="matrix(1, 0, 0, 1, 923.83, 163.4)">
		<path id="Path_1162-2" class="st1" d="M-292.05,615.66c0,0,33.13-177.92,76.88-121.44c17.61,22.73-10.4,70,45.62,103.64
			c3.79,2.25,8.07,3.54,12.47,3.74c19.05,0.95,77.2,8.15,84.9,60.54H-246.9L-292.05,615.66z"/>
	</g>
	<g transform="matrix(1, 0, 0, 1, 923.83, 163.4)">
		<path id="Path_1163-2" class="st2" d="M-312.33,245.41c28.7-64.85,99.24,29.08,109.49-105.36C-192.61,5.81-130.74-2.77-98.5,24.01
			C-66.18,50.85-13.47,61.7-13.78,1.43c-0.5-97.95,167.95-139.89,205.23,83.9c4.21,25.55,25.74,44.66,51.61,45.81
			c95.07,4.13,153.53,59.22,138.44,113.99c-34.24,124.29-174.44,43.72-119.16,153.36c25.84,51.25,66.05,251.6-197.36,156.01
			c-6.58-2.39-25.96-5.94-39.64,0.03c-56.69,24.74-208.85,54.48-195.9-68.93c2.35-22.38,17.71-44.07,21.34-55.46
			c10.04-31.5-48.7-34.06-93.86-20.71C-271.47,417.83-356.82,345.97-312.33,245.41z"/>
	</g>
	<g transform="matrix(1, 0, 0, 1, 923.83, 163.4)">
		<path id="Path_1164-2" class="st3" d="M-240.2,273.7c23.6-53.34,79.07,6.93,87.5-103.64c8.42-110.42,68.28-112.73,94.79-90.71
			c26.58,22.08,69.94,31,69.68-18.57c-0.41-80.56,131.09-138.34,161.74,45.72c3.46,21.02,21.17,36.74,42.44,37.68
			c78.19,3.39,126.27,48.71,113.86,93.75c-28.16,102.23-171.48,30.23-126.02,120.41c21.25,42.15,82.33,212.67-134.31,134.04
			c-5.41-1.97-21.35-4.89-32.6,0.02c-46.63,20.35-144.21,42.19-133.55-59.31c1.93-18.41,14.57-36.24,17.55-45.61
			c8.26-25.91-27.99-65.41-80.98-38.38C-178.35,358.42-276.8,356.4-240.2,273.7z"/>
	</g>
	<g transform="matrix(1, 0, 0, 1, 923.83, 163.4)">
		<path id="Path_1183-2" class="st4" d="M-75.8,111.92c37.01-6.87,25.13,44.64,87.09,8.82c61.88-35.76,84.93-4.73,82.86,17.42
			c-2.07,22.21,8.98,48.55,35.29,30.34c43.3-29.95,123.44,20.63,31.26,105.96c-8.28,7.59-9.83,20.05-3.67,29.44
			c29.48,44.15,23.33,88.47-6.01,98.56C86.32,424.74,88.39,363,34.59,399.79c-86.47,59.14-57.98-66.2-100.28-73.24
			c-89.96-14.97-56.01-91.35-11.98-87.36c17.48,1.58,31.42-37.24-9.08-57.12C-98.63,176.25-133.18,122.58-75.8,111.92z"/>
	</g>
	<g transform="matrix(1, 0, 0, 1, 923.83, 163.4)">
		<path id="Path_1166-2" class="st5" d="M204.48-149.83c0,0-14.36,215.17,95.46,228.48c0,0,143.09-4.99,161.4,78.2v-306.68H204.48z"
			/>
	</g>
	<g transform="matrix(1, 0, 0, 1, 923.83, 163.4)">
		<path id="Path_1167-2" class="st1" d="M461.32,662.15V400.73c0,0-75.54-59.7-128.27-33.16c0,0-33.77,33.16,0,132.63
			c0,0,32.11,148.16-34.2,161.95L461.32,662.15z"/>
	</g>
	<g transform="matrix(1, 0, 0, 1, 923.83, 163.4)">
		<path id="Path_1168-2" class="st5" d="M-380.01,542.88c0,0,87.26-152.22,109.23-86.52c9.16,27.4-34.94,63.23,13.31,114.81
			c0,0,73.21,30.56,61.56,90.99h-184.1L-380.01,542.88z"/>
	</g>
	<g transform="matrix(1, 0, 0, 1, 923.83, 163.4)">
		<path id="Path_1169-2" class="st1" d="M-380.01-149.83h235.35c0,0,65.66,4.13,93.14,45.95c12.04,18.35,6.93,42.98-11.41,55.02
			c-3.19,2.09-6.66,3.72-10.31,4.82c-24.64,7.42-67.64,10.72-142.68-0.12c-7.35-1.1-14.86-0.12-21.68,2.83
			c-17.56,7.7-43.48,28.51-14.92,80.72c3.36,6.07,5.51,12.73,6.33,19.61c2.81,24.78,1.53,79.7-61,94.85
			c-12.93,3.02-23.87,11.6-29.87,23.44c-10.95,21.99-24.24,59.95-16.52,104.99c0,0,4.51,89.25-26.42,77.4L-380.01-149.83z"/>
	</g>
	<g transform="matrix(1, 0, 0, 1, 923.83, 163.4)">
		<path id="Path_1170-2" class="st3" d="M298.26-149.83c0,0-78.87,94.77-9.61,134.18c0,0,31.29,25.31,96.73-4.93
			c16.3-7.54,26.88-23.71,27.25-41.67c0.74-34.08,8.21-88.84,48.69-87.58L298.26-149.83z"/>
	</g>
	<g transform="matrix(1, 0, 0, 1, 923.83, 163.4)">
		<path id="Path_1171-2" class="st6" d="M-4.59,199.79c0.1-0.28,0.21-0.57,0.31-0.85c11.9-31.47,54.63-36.11,73.19-8.05
			c10.28,15.54,6.82,41.83,47.93,42.31c19.63,0.23,29.36,25.91,26.15,45.28c-5.13,30.89-9.57,70.31-43.47,61.5
			c-10.87-2.82-16.31-25.59-29.31-25.15c-28.46,0.94-73.57,63.01-93.36-6.13c-1.62-5.65,3.15-24.82-7.31-30.15
			c-16.29-8.29-33.68-41.3,1.21-53.69C-17.71,220.61-8.66,211.41-4.59,199.79z"/>
	</g>
	<g transform="matrix(1, 0, 0, 1, 923.83, 163.4)">
		<path id="Path_1185-2" class="st3" d="M461.32,662.15V435.27c0,0-60.01-51.81-101.9-28.78c0,0-26.83,28.78,0,115.1
			c0,0,25.51,128.58-27.17,140.55L461.32,662.15z"/>
	</g>
</g>
<rect id="Rectangle_435" x="-2" y="-150" class="st7" width="399" height="812"/>
<path id="Path_1205" class="st5" d="M-2.05-176.34l405.61-180.59L861.95,672.63L456.34,853.22L-2.05-176.34z"/>
<path id="Rectangle_1565" class="st8" d="M75.4,147.61h250c3.87,0,7,3.13,7,7v87c0,3.87-3.13,7-7,7h-250c-3.87,0-7-3.13-7-7v-87
	C68.4,150.74,71.53,147.61,75.4,147.61z"/>
<g id="Group_102" transform="translate(63.844 312.248)">
	<path id="Path_1365" class="st9" d="M216.56-121.13v-4.85c0-1.56,0-1.57,1.68-1.57c4.09,0,8.18,0.02,12.27-0.01
		c0.88-0.01,1.23,0.2,1.23,1.09c-0.03,15.48-0.03,30.97-0.01,46.45c0,0.8-0.26,1.07-1.13,1.06c-4.3-0.03-8.59-0.03-12.89,0.01
		c-0.96,0.01-1.19-0.33-1.17-1.15c0.08-1.92-0.01-3.84-0.27-5.74c-0.26,0.34-0.53,0.68-0.79,1.02c-3.1,4.22-7.96,6.79-13.2,6.96
		c-11.86,0.67-19.99-4.57-23.48-15.18c-2.67-8.14-2.41-16.27,1.6-24.04c3.09-6.25,9.09-10.56,16-11.49
		c5.97-0.97,11.63-0.16,16.43,3.55C214.17-123.82,215.42-122.52,216.56-121.13z M216.18-103.23c-0.02-3.16-0.23-6.29-1.96-9.12
		c-1.93-3.48-5.62-5.6-9.6-5.52c-4.4-0.02-7.33,2.16-9.32,5.62c-1.18,2.13-1.89,4.49-2.07,6.91c-0.51,4.03,0.3,8.12,2.3,11.66
		c1.3,2.4,3.56,4.13,6.21,4.76c5.11,1.11,10.34-1.31,12.8-5.93C215.96-97.5,216.15-100.35,216.18-103.23L216.18-103.23z"/>
	<path id="Path_1366" class="st9" d="M120.99-127.54c5.35,0,10.46,0.02,15.58-0.02c0.98-0.01,1,0.65,1.18,1.2
		c2.17,6.61,4.32,13.23,6.47,19.85c1.36,4.21,2.68,8.43,4.02,12.64c0.13,0.41,0.32,0.82,0.47,1.23h0.32
		c0.18-0.44,0.39-0.87,0.53-1.32c3.43-10.73,6.87-21.46,10.25-32.2c0.15-0.94,1.04-1.59,1.98-1.44c0.02,0,0.04,0.01,0.06,0.01
		c4.13,0.08,8.26,0.03,12.38,0.03h1.51c-0.92,2.47-1.75,4.73-2.6,7c-5.01,13.35-10.02,26.71-15.02,40.06
		c-0.25,1.06-1.28,1.74-2.36,1.55c-5.08-0.09-10.16-0.05-15.24-0.02c-0.68,0.12-1.34-0.3-1.53-0.96c-5.87-15.5-11.75-31-17.65-46.5
		C121.22-126.73,121.14-127.05,120.99-127.54z"/>
	<path id="Path_1367" class="st9" d="M40.58-113.71c0-11.11,0.02-22.22-0.02-33.33c0-1.09,0.28-1.45,1.51-1.43
		c4.29,0.07,8.59,0.06,12.88,0.01c1.06-0.01,1.31,0.32,1.31,1.25c-0.02,22.34-0.02,44.68,0,67.02c0,0.93-0.25,1.27-1.31,1.25
		c-4.33-0.05-8.67-0.05-13.01,0c-1.11,0.01-1.38-0.32-1.38-1.32C40.59-91.41,40.58-102.56,40.58-113.71z"/>
	<path id="Path_1368" class="st9" d="M114.25-103.23c0,7.62-0.02,15.25,0.02,22.87c0.01,1.1-0.31,1.44-1.52,1.42
		c-4.17-0.07-8.34-0.07-12.51,0c-1.31,0.02-1.57-0.41-1.57-1.52c0.03-14.56,0.04-29.11,0.02-43.67c0-3.41,0-3.41,3.7-3.41
		c3.47,0,6.94,0.04,10.41-0.02c1.13-0.02,1.48,0.27,1.47,1.35C114.23-118.56,114.25-110.9,114.25-103.23z"/>
	<path id="Path_1369" class="st9" d="M92.26-79.07c-13.49,0.66-27.99-4.06-32.93-19.24c-0.42-1.3-0.63-2.65-0.97-4.15
		c1.83,0,3.43-0.09,5.02,0.02c4.1,0.18,8.15,1.01,12,2.45c9.19,3.66,14.59,10.18,16.74,19.15c0.03,0.19,0.06,0.38,0.06,0.57
		C92.21-79.91,92.23-79.53,92.26-79.07z"/>
	<path id="Path_1370" class="st9" d="M58.38-104.85c1.47-7.06,5.68-13.26,11.7-17.23c6.46-4.4,13.84-5.74,21.72-5.42
		C89.65-113.98,75.85-103.43,58.38-104.85z"/>
	<path id="Path_1371" class="st9" d="M115.76-141.08c-0.03,4.96-3.9,8.36-9.5,8.32c-5.24-0.03-9.25-3.68-9.16-8.47
		c0.1-5.06,4.26-8.6,9.87-8.41C112.01-149.46,115.79-145.91,115.76-141.08z"/>
</g>
</svg>
