<?xml version="1.0" encoding="utf-8"?>
<!-- Generator: Adobe Illustrator 24.3.0, SVG Export Plug-In . SVG Version: 6.00 Build 0)  -->
<svg version="1.1" id="Layer_1" xmlns="http://www.w3.org/2000/svg" xmlns:xlink="http://www.w3.org/1999/xlink" x="0px" y="0px"
	 viewBox="0 0 360 360.24" style="enable-background:new 0 0 360 360.24;" xml:space="preserve">
<style type="text/css">
	.st0{fill:#FFFFFF;}
	.st1{fill:#3A7262;}
</style>
<rect x="78.97" y="81.15" transform="matrix(0.7071 -0.7071 0.7071 0.7071 -75.566 179.3443)" class="st0" width="199.47" height="199.47"/>
<path class="st1" d="M178.43,107.36c-3.77,0.39-7.63,9.51-9.97,14.68c-6.77,15-10.6,30.93-13.43,47.08
	c-1.75,9.96-2.72,20.08-3.61,30.14c-0.69,7.74-1.18,15.5-1.6,23.27c-0.26,4.73-0.8,7.51-1.1,12.11c-0.19,2.92-0.07,7.55-0.76,10.41
	c-0.86,3.55-5.26,6.13-7.99,5.33c-3.6-1.05-6.53-3.82-7.3-7.55c-0.65-3.14-0.32-6.27-0.33-6.59c-0.12-3.01,0.41-7.14,0.32-12.49
	c-0.13-8.3-0.29-10.02-0.37-18.32c-0.04-3.55-0.16-17.19-0.15-20.75c0.04-10.49,0.55-15.58,0.37-28.45
	c-0.04-2.64,0.63-10.63,0.46-13.27c-0.38-6.06,1.4-15.17-3.06-14.98c-1.44-0.06-4.48,4.26-5.62,6.72
	c-6.06,12.99-9.33,26.85-11.69,40.87c-1.52,9.03-1.77,18.28-2.57,27.43c-0.38,4.4-0.8,11.6-0.81,16.01
	c-0.01,8.05,0.17,16.11-0.02,24.16c-0.15,6.43,1.91,12.95-0.71,19.32c-1.93,4.67-7.7,7.16-12.1,4.84c-3.48-1.83-5.05-5.26-5.37-8.89
	c-0.46-5.13-0.27-10.32-0.37-15.48c-0.24-11.51,0.25-22.65,0.08-34.15c-0.06-3.84-0.72-29.45-0.98-33.12
	c-0.07-0.95-0.42-7.82-2.62-11.81c-0.43-0.78-2.53-1.7-3.83,0.41c0,0-2.89,4.97-3.85,7.63c-3.87,10.74-7.57,21.54-11.3,32.34
	c-0.92,2.66-2,5.02-5.06,5.9c-3.17,0.91-5.71-0.57-6.03-3.88c-0.12-1.3-0.01-2.68,0.32-3.94c3.34-12.97,6.14-26.16,12.16-38.22
	c2.8-5.62,6.45-10.97,10.54-15.74c6.96-6.8,10.6-2.99,13.49,2.53c1.94,3.72,3.34,7.72,4.99,11.59c0.23,0.53,0.52,1.03,1.17,2.33
	c0.53-1.85,0.83-2.98,1.17-4.09c2.53-8.2,4.5-16.64,7.77-24.54c3.16-7.61,7.32-14.79,12.95-20.95c2.57-2.81,6.28-4.5,10.07-4.14
	c4.1,0.4,7.97,2.83,9.48,7.34c2.47,7.39,3.81,14.94,4.19,22.7c0.04,0.73-0.16,9.08,0.26,10.52c0.5-1.01,1.79-8.66,1.86-8.99
	c2.25-10.14,6.14-19.78,10.46-29.11c3.05-6.58,7.13-12.64,12.85-17.4c3.62-3.01,7.88-4.37,12.33-3.49c4.8,0.96,9.1,4.83,10.47,9.26
	c1.32,4.26,2,8.81,2.3,13.28c0.87,12.97,0.72,10.55,1.36,25.21c0.27,6.1-0.25,17.71-0.34,23.82c-0.1,6.83-0.78,11.99-0.93,18.81
	c-0.09,3.95-0.77,15.61-1.02,19.56c-0.66,10.63-0.61,18.28-1.22,31.18c-0.23,4.84-0.25,9.69-0.06,14.53
	c0.34,8.41,0.61,16.55,1.62,24.94c0.11,0.9,0.99,4.14,1.9,4.49c2.6,0.99,3.79-1.57,4.44-2.21c3.24-3.23,5.34-12.29,10.82-11.28
	c3.07,0.57,0.41,10.17-0.13,12.21c-1.06,4.04-2.45,5.82-4.67,9.39c-5.63,8.88-15.93,10.8-22.35,2.47
	c-4.31-5.6-4.94-12.19-5.57-18.77c-1.16-12.05-1.25-22.05-1.7-34.16c-0.14-3.84,0.01-13.49,0.05-17.34
	c0.11-9.5,0.53-11.35,0.61-20.85c0.02-2.94,0.47-9.44,0.54-12.39c0.26-11.03,0.5-22.06,0.76-33.09c0.13-5.47,0.34-10.93,0.43-16.4
	c0.15-8.2,0.97-15.64,1.12-23.84C181.61,108.92,180.05,107.2,178.43,107.36z"/>
<path class="st1" d="M238.71,184.3c-7.11-0.22-12.37,0.01-19.81-0.21c-0.31,2.28-0.91,5.33-1.1,8.42c-0.29,4.54-0.37,9.1-0.41,13.65
	c-0.07,8.88-0.04,17.77-0.07,26.65c-0.01,4.97,0.67,10-0.1,14.91c-1,6.38-4.49,9.13-6.78,9.2c-5.85-0.43-8.01-6.23-8.46-10.05
	c-0.49-4.18-0.7-8.42-0.74-12.64c-0.07-7.36-0.11-14.73,0.2-22.08c0.3-7.29,1.03-14.56,1.57-21.84c0.65-8.79,0.27-17.58,0.95-26.37
	c0.36-4.66,0.22-9.3,0.24-13.97c0.09-18.74-0.24-44.9-4.91-60.17c-2.63-8.58-5.63-10.34-8.53-11.25c-5.85-1.83-8.7,0.18-16.56,4.83
	c-0.74,0.44-4.78,1.61-5.74,0.36c-1.06-1.37,0.1-3.84,1.06-5.01c3.36-4.06,11.96-8.35,16.98-9.76c10.33-2.9,15.15-0.59,20.98,6.27
	c2.9,3.41,4.52,7.19,5.85,11.62c3.27,10.91,5.33,22.1,5.5,33.54c0.14,9.66,1.24,19.33,1.02,28.99c-0.15,6.77,0.14,13.53-0.32,20.3
	c-0.17,2.44,0.76,3.25,3.01,2.73c5.55-1.28,9.58-2.86,15.09-4.3c0.98-0.26,2.27-1.57,2.39-2.52c0.61-4.93,0.89-9.91,1.29-14.87
	c0.18-2.33,0.37-4.65,0.54-6.98c0.82-11.23,1.83-22.46,2.38-33.7c0.35-7.1,0.09-14.26,2.54-21.05c0.68-1.89,1.93-3.86,3.48-5.05
	c1.22-0.93,3.04-1.35,4.4-0.97c3.4,0.95,3.52,5.18,3.65,6.77c0.53,6.32,0.38,10.44,0.62,16.78c0.31,8.08,0.36,7.3,0.63,15.37
	c0.09,2.73-0.02,14.23-0.2,16.96c-0.35,5.28-0.56,10.64-0.84,15.92c-0.48,9.2-0.77,18.41-1.17,27.61
	c-0.21,4.66-0.66,9.32-0.71,13.98c-0.09,8.79,0.02,17.59,0.07,26.38c0.01,2.43,0.24,4.87,0.06,7.29
	c-0.07,11.18,0.58,21.09,2.55,30.61c0.24,1.46,0.73,3.66,2.25,3.94c1.43,0.27,2.4-0.7,3.21-1.88c2.45-3.55,4.05-12.73,8.64-12.73
	c3.26,0,3.62,9.66,2.45,14.31c-1.09,4.34-2.07,6.79-3.85,10.85c-2.96,6.75-8.52,9.62-15.24,8.08c-5.18-1.19-9.27-5.01-11.52-10.25
	c-3.79-8.86-5.04-18.26-5.55-27.75c-0.47-8.87-0.62-17.77-0.71-26.66c-0.09-9.81,0.08-19.63,0.09-29.45
	C239.08,187.42,238.83,185.72,238.71,184.3z"/>
</svg>
