<?xml version="1.0" encoding="utf-8"?>
<!-- Generator: Adobe Illustrator 25.0.0, SVG Export Plug-In . SVG Version: 6.00 Build 0)  -->
<svg version="1.1" id="Layer_1" xmlns="http://www.w3.org/2000/svg" xmlns:xlink="http://www.w3.org/1999/xlink" x="0px" y="0px"
	 viewBox="0 0 400 400" style="enable-background:new 0 0 400 400;" xml:space="preserve">
<style type="text/css">
	.st0{fill:#FFFFFF;}
	.st1{opacity:0.548;}
	.st2{fill:#EBEBEB;}
	.st3{fill:#006F53;}
	.st4{font-family:'GoboldExtra2';}
	.st5{font-size:30px;}
	.st6{fill:none;}
	.st7{fill:none;stroke:#FFFFFF;}
</style>
<rect y="1" class="st0" width="400" height="400"/>
<g id="Map" transform="translate(0.666 0.41)" class="st1">
	<rect id="Rectangle_586" x="0.19" y="0.59" class="st2" width="398.03" height="706.21"/>
	<path id="Intersection_2" class="st0" d="M256.42,706.8l-10.34-29.45l-19.18,5.25l-2.71,24.2h-4.3l6.76-60.58l-11.7,1.44
		l-21.48,59.06h-8.99l11.3-31.12l-25.78-6.05l-14.08,36.06l2.79,1.19h-7.8l7-17.9l-28.01-10.75c-4.16,9.77-8.81,19.33-13.93,28.64
		h-9.87c12.73-21.97,22.44-46.8,29.05-67.02l-60.31-4.62l11.93,71.64h-8.59l-3.82-22.85l-34.62,5.89l-0.32,4.62l7.24,12.34h-4.93
		l-2.86-4.86l-0.32,4.86h-4.21l1.19-16.24l-25.31,4.3l0.88,11.86H2.57l-0.16-2.21V568.51l7.56-25.84l-7.56-0.65v-8.47l9.95,0.84
		l9.87-33.75l-19.81-9.56v-15.57l5.25,2.52l18.3-64.48L8.7,403.84l-6.29,19.32v-13.66l2.31-7.09l-2.31-0.39v-4.26l3.66,0.59
		l12.33-37.89l-15.99-6.52v-4.61l17.27,7.07l22.12-67.82l-39.39,3.75v-8.57l59.36-5.61l-42.49-48.79
		c-2.9,0.28-11.03,1.09-16.87,1.62v-4.16l15.52-1.53l-1.59-23.8l-13.93,1.78v-14.26l12.33-1.53l-2.86-18.07
		c-3.47,0.54-6.72,1.06-9.47,1.49v-4.36l8.83-1.34L8.3,146.97l-5.89,0.77v-4.27l5.17-0.72L3.6,117.76l-1.19,0.12v-8.46l33.26-3.2
		l-5.25-37.41c-8.86,1.83-18.28,3.23-28.01,4.28v-8.5c1.63-0.18,3.24-0.36,4.85-0.56L4.8,30.36l-2.39-0.29v-8.59l1.67,0.2L2.57,0.67
		h8.51l4.62,62.17c4.93-0.8,9.71-1.59,14.32-2.63l4.3-59.54h4.21l-4.21,58.51c12.57-3.02,23.55-7.08,31.99-12.58
		c0.55-0.4,1.19-0.88,1.83-1.27L41.8,0.67h4.93l11.22,19.02L79.2,7.04l-1.03-6.37h8.59l3.82,23c5.77-7.25,10.96-14.94,15.52-23h9.87
		c-1.2,2.23-2.47,4.46-3.82,6.69l31.91,11.06l6.92-17.75h7.8l22.29,9.31l3.42-9.31h8.99l-0.72,2.07l26.02,8.04l1.11-10.11h4.3
		l-1.35,11.38l20.37,6.37c2.79-0.8,9.79-2.79,17.67-4.93l-4.53-12.9h4.46c1.67,4.7,3.1,8.91,4.14,11.78
		c6.53-1.83,13.13-3.66,18.06-5.02l-3.26-6.69h15.76l1.43,2.79l9.63-2.79h30.32c-14.64,4.22-28.17,8.2-36.21,10.51l13.53,27.62
		l31.6-5.33l-4.06-32.8h8.51l3.98,31.44l32.31-5.49l4.77-25.95h8.04v33.8l-2.15,11.41l2.15,0.63v4.36l-2.63-0.77l2.63,5.68v20.17
		l-5.41-11.68l-11.86,64.63c3.73,2.51,6.88,5.8,9.23,9.63l8.04-4.83v5.01l-6.05,3.65c1.66,3.9,2.53,8.1,2.55,12.34
		c0,0.64-0.08,1.19-0.08,1.83l3.58,0.67v14.38l-7.72-1.45c-4.56,7.9-12.4,13.38-21.41,14.97l-11.86,37.01l40.98,8.22v4.34
		l-18.86-3.81c-0.48,3.02-1.43,8.84-2.47,15.12l21.33,2.82v4.28l-21.96-2.95c-0.95,5.97-1.91,11.86-2.55,15.68l24.51,4.63v8.61
		l-26.1-4.88l-9.71,44.42l35.81-33.47V291l-36.45,33.97l14.56,17.83l21.88-13v9.8l-16.47,9.81l12.26,14.89l4.21-2.5v4.97l-1.59,0.94
		l1.59,1.95v6.65l-20.13-24.68l-42.49,25.23l62.62,11.26v14.37l-16.47-2.95l-7.96,47.36l24.43,5.82v4.35l-25.15-6.03l-4.7,28.1
		c10.5,1.98,20.68,3.97,29.84,5.72v8.61l-19.89-3.82l-6.37,44.34l19.5,3.98l6.76-28.19v18.38l-2.55,10.62l2.55,0.52v8.67
		l-27.37-5.53l-3.74,26.03l31.12,6.14v4.24l-31.75-6.24l-4.54,31.84l36.29,6.22v8.62l-37.48-6.4l-4.46,31.28l41.94,5.74v8.48
		l-18.22-2.52l-4.62,30.49l19.5-5.65l3.34-17.94v43.97h-8.2l3.1-16.72c-10.19,3.02-27.21,7.96-44.48,12.97l0.48,3.74h-8.51
		l-0.16-1.35c-1.59,0.48-3.1,0.88-4.69,1.35h-30.32l34.85-10.03l3.1-21.97l-56.18,17.43l7.16,14.65h-15.76l-16.71-34.07l-12.89,3.5
		c1.83,5.25,6.76,19.34,10.74,30.57H256.42z M350.23,694.07l21.72-6.29l4.85-32.32l-20.69-2.87L350.23,694.07z M7.66,660.79
		l2.23,29.85l63.74-10.9l-4.3-25.63L7.66,660.79z M279.01,673.21l7.4,15.04l21.25-6.69l-3.98-15.44L279.01,673.21z M131.56,674.17
		l27.93,10.67l6.37-16.24l-29.36-6.93C134.98,665.81,133.31,669.95,131.56,674.17z M307.74,665.01l3.98,15.36l33.42-10.35l2.31-16.4
		L307.74,665.01z M230.95,645.67l-3.58,32.4l33.74-9.23l-12.49-25.47L230.95,645.67z M174.53,661.99l24.19,5.65l7.64-21.17
		l-15.28-6.29L174.53,661.99z M264.13,642.81l11.14,22.69l73.53-21.02l2.23-15.44l-74.48-10.75L264.13,642.81z M139.44,653.71
		l30.64,7.16l17.82-23.48l-17.19-29.29l-17.51-0.48C149.41,623.21,144.82,638.59,139.44,653.71z M5.36,629.11l1.67,23.16l60.95-6.61
		l-3.58-21.57L5.36,629.11z M216.63,643.28l30.08-3.89L236.68,619c-3.16,1.06-6.46,1.6-9.79,1.59c-0.66,0.01-1.33-0.01-1.99-0.08
		L216.63,643.28z M193.79,636.67l14.08,5.81l8.67-23.8c-2.33-0.8-4.56-1.89-6.61-3.26L193.79,636.67z M248.69,611.44l13.05,26.59
		l19.74-38.85l-24.19-4.14C256.18,601.26,253.18,606.98,248.69,611.44L248.69,611.44z M74.11,630.78l62.39,4.78
		c3.74-11.86,6.44-21.73,8.04-28.18l-74.64-2.13L74.11,630.78z M190.76,633.8l15.92-20.93c-1.37-1.15-2.62-2.43-3.74-3.82
		l-27.21-0.8L190.76,633.8z M5.12,624.97l58.65-5.02l-2.47-14.88L3.53,603.4L5.12,624.97z M320.47,620.36l31.11,4.46l1.91-13.37
		l-29.92-5.01L320.47,620.36z M278.54,614.31l37.72,5.42l3.18-14.09l-33.66-5.65L278.54,614.31z M210.1,589.63
		c0.03,9.24,7.58,16.71,16.85,16.67c9.27-0.03,16.76-7.56,16.73-16.8c-0.03-9.22-7.54-16.67-16.79-16.68
		C217.6,572.85,210.08,580.37,210.1,589.63z M307.02,594.97l47.66,8.12l2.39-16.48l-47.03-8.84L307.02,594.97z M175.64,594.17
		l20.84,0.55c-0.33-1.68-0.47-3.39-0.4-5.09c0.01-1.65,0.14-3.3,0.4-4.93l-17.67-8.52L175.64,594.17z M139.83,574.83l-2.31,18.23
		l33.74,0.95l3.5-19.74l-26.74-12.9L139.83,574.83z M254.18,575.3c1.87,3.48,3.04,7.29,3.42,11.22l41.06,7l9.47-53.73L254.18,575.3z
		 M70.05,591.14l63.26,1.83l2.15-17.19l-60-12.97L70.05,591.14z M5.12,589.31l56.34,1.59l2.07-10.83l-54.03-5.65L5.12,589.31z
		 M310.76,573.55l46.95,8.92l1.75-12.5l-44-22.77L310.76,573.55z M39.33,573.23l24.99,2.63l9.63-50.31l-20.77-10.03L39.33,573.23z
		 M10.77,570.29l24.35,2.54l14.16-59.14l-19.34-9.31L10.77,570.29z M113.97,566.79l22.76,4.93l7.4-12.26l-20.84-10.03L113.97,566.79
		z M247.82,566.95c1.53,1.43,2.91,3,4.14,4.7l57.21-37.57l0.72-4.14l-47.11-9.55L247.82,566.95z M161.64,552.3l40.19,19.34
		c2.67-3.7,6.12-6.77,10.11-8.99l-6.61-26.35L161.64,552.3z M76.26,558.59l33.42,7.24l9.79-18.31l-37.64-18.15L76.26,558.59z
		 M316.25,542.83l43.85,22.69l3.5-24.76l-45.36-9.15L316.25,542.83z M210.66,499.6l14.96,59.14h1.27c2.85-0.01,5.7,0.39,8.44,1.19
		l16.63-52.14l-7.56-18.71L210.66,499.6z M133.55,538.69l22.84,11.07l29.12-10.67l-5.49-19.74L133.55,538.69z M175.64,487.98
		l13.77,49.51l14.88-5.42l-12.65-50.23L175.64,487.98z M93.6,519.42l34.85,16.8l16.32-6.76l-13.85-24.28L93.6,519.42z
		 M319.67,523.24l45.12,9.15l6.37-44.34l-43.77-8.44L319.67,523.24z M134.9,503.58l13.77,24.2l30.16-12.58l-7.16-25.71L134.9,503.58
		z M265.4,512.26l45.99,9.31l7.72-43.54l-40.27-7.72L265.4,512.26z M63.44,504.85l19.66,9.47l41.06-15.68l-47.67-32.71L63.44,504.85
		z M232.06,447.22l21.96,54.29l25.07-78.25L232.06,447.22z M15.46,481.77l40.34,19.42l13.21-39.57l-42.33-19.42L15.46,481.77z
		 M107.21,445.95l-5.02,32.48l26.74,18.39l16.23-6.21l12.81-65.35c-11.38-3.98-24.59-8.6-36.13-12.66L107.21,445.95z M193.95,433.13
		l15.76,62.41l33.18-10.35l-23.95-59.14L193.95,433.13z M149.86,488.77l39.79-15.2l-10.34-40.91c-4.3-1.51-10.34-3.66-17.27-6.05
		L149.86,488.77z M333.04,472.06c10.5,1.99,21.48,4.14,32.23,6.21l13.37-79.52l-6.84-1.27L333.04,472.06z M77.93,461.79l20.45,14.01
		l4.37-28.58l-19.25-2.31L77.93,461.79z M281.48,462.19c9.47,1.83,27.13,5.17,47.27,9.07l2.94-5.65l-39.79-36.06L281.48,462.19z
		 M314.82,444.6l18.78,17.11l33.74-64.95l-21.48-3.9L314.82,444.6z M27.8,438.07l42.57,19.5l4.85-14.57l-43.61-18.23L27.8,438.07z
		 M222.6,423.82l7.87,19.5l49.57-25.23l-44.48-11.38L222.6,423.82z M85.01,440.94l18.94,2.23l13.93-31.92
		c-8.83-3.1-16.31-5.73-20.61-7.24L85.01,440.94z M293.34,425.1l18.3,16.64l29.76-49.67l-35.49-6.37L293.34,425.1z M54.85,425.33
		l23.08,9.63l11.22-33.59l-22.92-7.09L54.85,425.33z M192.84,429l26.02-7.4l12.17-16.08l-47.11-12.02L192.84,429z M136.89,413.4
		l41.06,14.41l-9.71-38.45l-23.39-7L136.89,413.4z M34.01,416.58l17.03,7.08l22.92-62.41l-22.36-6.69L34.01,416.58z M98.54,399.94
		l34.38,12.02l7.88-30.88l-32.71-9.71L98.54,399.94z M268.35,406.31l14.88,3.82l7.56-23.48l-15.68-5.25L268.35,406.31z
		 M46.42,288.11l-36.37,111.6l17.11,9.63l34.85-122.66L46.42,288.11z M241.85,399.63l22.44,5.73l6.84-25.23l-19.02-6.37
		L241.85,399.63z M215.19,347.33l-15.6,8.99l9.87,34.86l24.11,6.13l21.33-53.41L215.19,347.33z M67.82,390.23
		c4.77,1.51,16.47,5.17,22.76,7.09l9.47-28.34l-22.04-6.53L67.82,390.23z M177.72,368.98l3.82,15.2l23.08,5.89l-8.83-31.52
		L177.72,368.98z M253.63,369.78l38.43,12.82l12.33-38.45l-35.01-13.86L253.63,369.78z M128.62,368.66l37.32,11.06l-9.31-36.78
		L128.62,368.66z M310.29,372.16l13.69,2.47l26.42-15.68c1.27-6.05,4.06-18.63,7.08-32.56l-30.24-7.16L310.29,372.16z M86.52,306.41
		L75.7,352.9l48.14,14.33l31.67-28.89L147,304.66L86.52,306.41z M168.72,333.24l7.96,31.44l34.69-19.98
		c-4.14-5.57-16.23-21.65-19.97-26.67L168.72,333.24z M355.4,355.85l18.38-10.91l-12.65-15.45L355.4,355.85z M53.89,346.45
		l17.75,5.26l6.92-29.77l-16.23-5.18L53.89,346.45z M194.9,315.57l20.61,27.46l41.06-3.5l0.79-1.99l-42.01-35.74L194.9,315.57z
		 M270.98,326.31l34.77,13.77l7.96-24.91l-33.42-12.18L270.98,326.31z M242.73,319.55l16.31,13.85l13.61-34.23l-10.27-7.48
		L242.73,319.55z M164.66,317.32l2.94,11.54l21.17-14.25l-7.4-9.31L164.66,317.32z M328.51,315.25l29.84,7
		c4.3-19.42,8.83-40.2,10.66-48.8l-25.62-4.78L328.51,315.25z M71.08,285.8l-7.64,26.83l16.08,5.17l7.8-33.51L71.08,285.8z
		 M205.49,287.95l33.98,28.82l19.5-27.62l-27.53-19.9L205.49,287.95z M184.79,302.75c2.39,3.02,5.73,7.24,7.48,9.47l19.66-13.29
		l-10.03-8.52L184.79,302.75z M281.8,299.09l33.18,12.02l5.09-16c-6.68-3.34-18.3-9.39-30.24-16.24L281.8,299.09z M148.99,254.67
		l13.53,53.73L200,281.42l-10.35-34.55L148.99,254.67z M91.77,283.89l-4.3,18.31l58.41-1.75l-5.33-21.17L91.77,283.89z
		 M235.09,266.61l39.23,28.42l8.12-20.46c-9.95-5.89-19.5-12.18-26.02-17.83c-1.12-1-2.18-2.06-3.18-3.18L235.09,266.61z
		 M259.83,248.3c0.65,0.7,1.34,1.37,2.07,1.99c14.72,12.66,46.71,29.53,60.8,36.69l9.39-29.29l-38.2-38.6L259.83,248.3z
		 M64.88,221.32l6.61,55.96l19.74-1.91l-7.48-56.84L64.88,221.32z M199.68,251.09l7.56,25.15l19.1-13.69l-7.88-20.46L199.68,251.09z
		 M95.43,274.97l43.05-4.06l-2.07-8.28l-44.64-15.6L95.43,274.97z M20.55,201.02l1.67,25.31l40.19,46.17l-8.99-75.54L20.55,201.02z
		 M346.01,260.48l24.59,4.62l5.73-35.02l-19.34-3.9L346.01,260.48z M208.67,204.84l21.25,55.08l18.22-13.13
		c-11.06-16.8-20.05-44.66-24.91-61.69L208.67,204.84z M87.95,217.9l3.18,24.44l44,15.36l-11.38-45.13L87.95,217.9z M131.96,187.33
		l15.92,63.28l40.5-7.88l-18.14-60.1L131.96,187.33z M300.34,213.52l34.69,35.1l14.96-46.9l-22.52-11.54L300.34,213.52z
		 M192.35,226.9l6.05,20.06l18.54-8.91l-11.3-29.21L192.35,226.9z M241.37,213.37c3.9,10.43,8.44,20.7,13.37,28.26l13.29-11.46
		l-11.78-22.53L241.37,213.37z M260.23,205.96l11.14,21.33l16.39-14.17l-14.4-12.26L260.23,205.96z M178.74,181.68l12.09,40.2
		l30.96-42.03c-0.32-1.19-0.64-2.31-0.88-3.34L178.74,181.68z M61.85,195.93l2.55,21.17l58.33-8.6l-4.93-19.42L61.85,195.93z
		 M284.34,168.71l-8.19,28.97l14.88,12.66l47.03-40.36c-1.36-2.35-2.4-4.86-3.1-7.48L284.34,168.71z M229.44,175.47
		c2.07,7.8,5.81,20.7,10.5,33.83l32.15-12.42l7.8-27.62L229.44,175.47z M330.9,187.25l20.37,10.43l4.38-13.53
		c-4.67-1.5-8.92-4.06-12.42-7.48L330.9,187.25z M16.1,168.78l2.86,18.15l32.07-3.9l-4.46-18.95
		C40.29,165.04,27.48,167.03,16.1,168.78z M59.39,182l57.69-7.09l-2.23-8.44l-59.76-2.79L59.39,182z M130.61,173.24l35.33-4.3
		l-21.33-34.23L130.61,173.24z M348.08,154.62c0.03,9.24,7.58,16.71,16.85,16.67c9.27-0.03,16.76-7.56,16.73-16.8
		c-0.03-9.22-7.54-16.68-16.79-16.68C355.58,137.84,348.07,145.36,348.08,154.62L348.08,154.62z M147.4,131.21l23.16,37.17
		l13.61-1.67l0.08-41.23L147.4,131.21z M123.84,167.11l21.48-58.91L104.9,93.96L123.84,167.11z M188.54,124.84l-0.08,41.39
		l45.12-5.49l-4.77-42.19L188.54,124.84z M12.52,146.42l2.87,18.15l30.24-4.62l-4.06-17.43L12.52,146.42z M72.2,111.23l8.75,49.43
		l32.86,1.51l-13.85-53.57L72.2,111.23z M43.55,113.94l10.58,45.45l22.44,1.03l-8.67-48.8L43.55,113.94z M235.72,142.6l1.99,17.59
		l25.39-3.1l-2.71-17.51L235.72,142.6z M264.85,112.99l6.68,43.06l28.81-3.5l-6.76-44.02L264.85,112.99z M297.79,107.89l6.84,44.1
		l30.08-3.66c1.33-6.34,4.61-12.1,9.39-16.48l-14.16-28.97L297.79,107.89z M7.82,117.36l3.98,24.83l28.73-3.82l-5.49-23.64
		L7.82,117.36z M232.94,118l2.31,20.38l24.51-2.94l-3.26-21.09L232.94,118z M316.18,42.78l40.34,82.15
		c0.22-0.01,0.44-0.07,0.64-0.16l-10.82-87.08L316.18,42.78z M354.69,36.25l10.82,87.56c1.03,0.08,1.99,0.16,3.02,0.24l17.11-92.97
		L354.69,36.25z M149.07,122.46l36.21-5.65l15.12-54.13l-25.94-9.79L149.07,122.46z M189.89,116.09l22.04-3.43l10.27-41.71
		l-17.82-6.77L189.89,116.09z M216.39,112.03l33.1-5.17l-3.42-26.75l-19.97-7.56L216.39,112.03z M37.19,87.11l2.63,18.71l57.93-5.57
		l-6.29-23.96L37.19,87.11z M255.78,88.63l2.15,16.88l68.04-10.59l-8.76-17.91L255.78,88.63z M125.99,96.9l20.78,7.32l8.83-24.28
		l-22.29-9.23L125.99,96.9z M103.63,88.95l18.38,6.53l7.4-26.43L94.72,54.56L103.63,88.95z M247.82,25.98l7.4,58.43l27.85-5.25
		c-3.26-9.47-15.36-45.61-19.42-57.55L247.82,25.98z M70.93,53.76C61.3,59.97,48.8,64.59,34.56,68.01l2.07,14.96l53.79-10.75
		l-7.25-28.01C79.37,47.73,75.27,50.93,70.93,53.76z M267.79,20.49l19.5,57.95l28.01-5.33l-28.41-57.95L267.79,20.49z M134.5,66.58
		l22.52,9.39l14.24-39.16l-25.94-8.99L134.5,66.58z M205.72,60.21l39.79,15.12l-3.26-25.79l-27.13-9.87L205.72,60.21z M90.1,37.28
		l3.18,12.26l37.24,15.44l10.82-38.53l-33.82-11.7C102.38,22.75,96.55,30.29,90.1,37.28z M175.88,48.74l25.94,9.87l10.19-22.45
		l5.09-17.03l-27.3-8.44L175.88,48.74z M216.63,35.69l25.07,9.07l-2.39-18.71l-18.15-5.65L216.63,35.69z M60.1,23.36l11.54,19.5
		c4.19-3.31,8.13-6.93,11.78-10.83L80,11.49L60.1,23.36z M148.03,19.77l26.18,9.07l5.41-14.89L154.4,3.46L148.03,19.77z"/>
</g>
<g id="Group_932" transform="translate(-3392 -6097.806)">
	<path id="Rectangle_1480" class="st3" d="M3469.01,6260.02h244c8.28,0,15,6.72,15,15v31c0,8.28-6.72,15-15,15h-244
		c-8.28,0-15-6.72-15-15v-31C3454.01,6266.74,3460.73,6260.02,3469.01,6260.02z"/>
	<g id="Group_931" transform="translate(3474.854 6210.964)">
		<text transform="matrix(1 0 0 1 47.0043 93.214)" class="st0 st4 st5">StreetSmart</text>
		<path id="route" class="st0" d="M39.25,83.07h-4.67c-0.86,0-1.56-0.7-1.56-1.56c0-0.86,0.7-1.56,1.56-1.56h4.67
			c0,0,4.67-5.21,4.67-7.78c0-2.58-2.09-4.67-4.67-4.67c-2.58,0-4.67,2.09-4.67,4.67c0,1.24,1.08,3.08,2.2,4.67h-2.2
			c-2.58,0-4.67,2.09-4.67,4.67s2.09,4.67,4.67,4.67h4.67c0.86,0,1.56,0.7,1.56,1.56s-0.7,1.56-1.56,1.56H28.04
			c-0.71,1.08-1.47,2.12-2.3,3.11h13.51c2.58,0,4.67-2.09,4.67-4.67S41.83,83.07,39.25,83.07C39.25,83.07,39.25,83.07,39.25,83.07z
			 M39.25,70.62c0.86,0,1.56,0.7,1.56,1.56s-0.7,1.56-1.56,1.56c-0.86,0-1.56-0.7-1.56-1.56C37.7,71.32,38.39,70.62,39.25,70.62
			C39.25,70.62,39.25,70.62,39.25,70.62L39.25,70.62z M23.68,79.96c-2.58,0-4.67,2.09-4.67,4.67c0,2.58,4.67,7.78,4.67,7.78
			s4.67-5.21,4.67-7.78C28.35,82.05,26.26,79.96,23.68,79.96z M23.68,86.19c-0.86,0-1.56-0.7-1.56-1.56s0.7-1.56,1.56-1.56
			s1.56,0.7,1.56,1.56l0,0C25.24,85.49,24.55,86.19,23.68,86.19C23.69,86.19,23.69,86.19,23.68,86.19z"/>
	</g>
	<g id="Rectangle_1481" transform="translate(3438 6204.806)">
		<path class="st6" d="M34.01,59.21h238c8.28,0,15,6.72,15,15v23c0,8.28-6.72,15-15,15h-238c-8.28,0-15-6.72-15-15v-23
			C19.01,65.93,25.73,59.21,34.01,59.21z"/>
		<path class="st7" d="M34.01,59.71h238c8.01,0,14.5,6.49,14.5,14.5v23c0,8.01-6.49,14.5-14.5,14.5h-238
			c-8.01,0-14.5-6.49-14.5-14.5v-23C19.51,66.21,26.01,59.71,34.01,59.71z"/>
	</g>
</g>
<g id="Location_Icon" transform="translate(161 386)">
	<path id="Bounds" class="st6" d="M137.01-327.79h40v40h-40V-327.79z"/>
	<path id="Icon" class="st3" d="M157.01-324.49c-6.43-0.03-11.67,5.17-11.7,11.6c0,0.03,0,0.07,0,0.1c0,8.8,11.7,21.7,11.7,21.7
		s11.7-12.9,11.7-21.7C168.67-319.23,163.46-324.44,157.01-324.49z M157.01-308.59c-2.32,0-4.2-1.88-4.2-4.2
		c0-2.32,1.88-4.2,4.2-4.2s4.2,1.88,4.2,4.2c0,0,0,0,0,0C161.2-310.47,159.33-308.6,157.01-308.59z"/>
</g>
<g id="Location_Icon-2" transform="translate(80 270)">
	<path id="Bounds-2" class="st6" d="M128.01-0.79h40v40h-40V-0.79z"/>
	<path id="Icon-2" class="st3" d="M148.01,2.51c-6.43-0.03-11.67,5.17-11.7,11.6c0,0.03,0,0.07,0,0.1c0,8.8,11.7,21.7,11.7,21.7
		s11.7-12.9,11.7-21.7C159.67,7.77,154.46,2.56,148.01,2.51z M148.01,18.41c-2.32,0-4.2-1.88-4.2-4.2s1.88-4.2,4.2-4.2
		c2.32,0,4.2,1.88,4.2,4.2c0,0,0,0,0,0C152.2,16.53,150.33,18.4,148.01,18.41z"/>
</g>
<g id="Location_Icon-3" transform="translate(-40 319)">
	<path id="Bounds-3" class="st6" d="M112.01-0.79h40v40h-40V-0.79z"/>
	<path id="Icon-3" class="st3" d="M132.01,2.51c-6.43-0.03-11.67,5.17-11.7,11.6c0,0.03,0,0.07,0,0.1c0,8.8,11.7,21.7,11.7,21.7
		s11.7-12.9,11.7-21.7C143.67,7.77,138.46,2.56,132.01,2.51z M132.01,18.41c-2.32,0-4.2-1.88-4.2-4.2s1.88-4.2,4.2-4.2
		c2.32,0,4.2,1.88,4.2,4.2c0,0,0,0,0,0C136.2,16.53,134.33,18.4,132.01,18.41z"/>
</g>
</svg>
